<svg id="Layer_1" data-name="Layer 1" xmlns="http://www.w3.org/2000/svg" viewBox="0 0 547 201">
  <defs>
    <style>
      .cls-1 {
        fill: #fff;
      }

      .cls-2 {
        fill: #ff685b;
      }

      .cls-3 {
        fill: #ffda33;
      }

      .cls-4 {
        stroke: #000;
        stroke-miterlimit: 10;
      }

      .cls-5 {
        fill: #3dc;
      }

      .cls-6 {
        fill: #ff3;
      }

      .cls-7 {
        fill: #f5ed48;
      }
    </style>
  </defs>
  <path class="cls-5" d="m36.89,108.76l-28.72,17.33c-2.26,1.36-.31,3.42,3.23,3.42h56.37c3.51,0,5.46-2.02,3.28-3.39l-27.64-17.33c-1.66-1.04-4.81-1.05-6.51-.03Z"/>
  <rect class="cls-2" x="25.5" y="50.57" width="27.36" height="88.01" rx="10.23" ry="10.23"/>
  <ellipse class="cls-2" cx="39" cy="30.42" rx="14.5" ry="14.92"/>
  <rect x="69.71" y="16" width="32.68" height="96.39"/>
  <rect x="135.64" y="16" width="32.68" height="96.39"/>
  <polygon points="69.71 16 135.64 112.39 168.32 112.39 102.39 16 69.71 16"/>
  <path d="m216.21,16.09v-.09h-32.68v167.63h32.68v-79.71c38.39-.56,67.35-5.2,67.35-43.92s-28.97-43.29-67.35-43.91Zm-.81,67.94v-47.42c23.79,0,43.08.2,43.08,23.71s-19.29,23.71-43.08,23.71Z"/>
  <circle class="cls-5" cx="330.95" cy="74.47" r="33.53"/>
  <path class="cls-3" d="m367.38,86.99l22.34,57.28c1.3,3.34,3.44,6.23,6.23,8.14,3.44,2.36,8.36,4.05,13.66.38,2.75-1.91,4.85-4.79,6.13-8.09l21.6-55.67c1.82-4.69,1.48-10.16-1.15-14.36-.84-1.35-1.9-2.55-3.23-3.37s-3.24-1.14-5.39-.87c-5.15.66-9.44,4.69-11.17,10.1l-13.11,41.1c-.09.3-.47.3-.57,0l-14.74-43.94s-3.54-9.25-13.43-7.5c0,0-5.67.47-7.73,9.63-.54,2.39-.33,4.91.55,7.17Z"/>
  <path class="cls-3" d="m275.07,112.82s3.24-7.24-4.48-8.61c-.06-.01-.13-.02-.19-.03-1.34-.15-15.59-1.57-15.59,6.64l-.15,66.59c0,.69.18,1.38.54,1.97,1.04,1.7,3.79,4.76,10,4.6,0,0,8.92.33,10.47-5.57.06-.22.08-.45.08-.68v-38.26c0-3.89,2.24-7.43,5.74-9.01,4.3-1.93,10.81-2.82,18.9,2.37,3.67,2.35,8.53,1.53,11.17-1.97.04-.05.08-.1.12-.16,0,0,3.16-3.35,3.27-7.29.03-1.22.11-2.14,0-3.32-.24-2.63-3.53-5.55-5.05-6.38-5.47-2.99-23.4-9.74-34.82-.91Z"/>
  <polygon class="cls-6" points="342.96 90.57 330.23 83.47 317.16 89.94 319.98 75.63 309.79 65.2 324.27 63.46 331.04 50.55 337.17 63.78 351.54 66.23 340.85 76.15 342.96 90.57"/>
  <path class="cls-5" d="m476.38,82.52h40.64c3.36,0,6.07-2.78,5.97-6.14-.83-28.13-15.23-39.98-38.9-40.71-27.24.11-37.88,16.23-38.6,41.9-.1,3.6.26,7.21,1.08,10.73,3.43,14.73,9.72,20.34,20.01,24.53,27.07,7.36,42.72.33,51.88-14.43,1.35-2.17-.04-5-2.58-5.24l-17.52-1.65c-1.46-.14-2.88.49-3.8,1.63-1.78,2.21-3.81,3.59-6.04,4.26-2.23.67-4.63.54-6.83-.22-5.1-1.75-8.2-4.76-9.54-8.88-.93-2.86,1.22-5.79,4.23-5.79Zm-4.3-18.3c1.71-7.12,5.82-10.87,12.34-11.28,6.52-.03,10.51,4,11.95,12.08.33,1.82-1.06,3.49-2.91,3.49h-17.99c-2.25,0-3.92-2.11-3.4-4.3Z"/>
  <path class="cls-2" d="m21.45,141.32s-7.34,3.31-6.45,12.54c0,0,.51,14.08,8.67,21.79l2.33-4.23s4.33,8.82,1.93,14.86c0,0,11.34.28,14.35-11.86,0,0,2.29,5.86-.36,9,0,0,16.27-1.15,20.52-17.2,0,0,4.11-12.45-7.97-21.41,0,0-16.94,9.05-33.02-3.49Z"/>
  <path class="cls-7" d="m25.84,144.2s-2.25,6.58,6.78,15.23l.46-2.5s2.23.3,2.7,7.69c0,0,5.46.02,6.84-7.49,0,0,1.58,1.38,1.43,4.95,0,0,12.1-5.31,8.23-16.64,0,0-11.24,6.22-26.44-1.24Z"/>
  <circle class="cls-7" cx="21.65" cy="154.3" r="1.71"/>
  <circle class="cls-7" cx="19.13" cy="149.69" r=".57"/>
  <circle class="cls-7" cx="23.54" cy="147.53" r=".85"/>
  <circle class="cls-7" cx="52.2" cy="169.77" r="2.28"/>
  <circle class="cls-7" cx="48.43" cy="164.93" r="1.14"/>
  <path d="m420.66,132.18c-1.4-2.2-2.98-4.28-4.73-6.22s-3.49-3.75-5.93-4.48c-.75-.22-1.67.27-1.85,1.05s.24,1.6,1.05,1.85,1.67.81,2.37,1.43c.84.75,1.61,1.57,2.36,2.41,1.56,1.74,2.88,3.49,4.14,5.48.43.68,1.33.96,2.05.54.68-.4.97-1.37.54-2.05h0Z"/>
  <path d="m384.46,127.59c-3.78-4.36-9.03-7.41-14.69-8.52-.79-.16-1.62.23-1.85,1.05-.2.74.25,1.69,1.05,1.85,5.21,1.03,9.89,3.74,13.36,7.75.53.61,1.58.54,2.12,0,.61-.61.53-1.51,0-2.12h0Z"/>
  <path d="m275.83,156.02c.19-.12.39-.22.59-.33-.26.14.1-.04.15-.05.09-.03.17-.06.26-.08.13-.04.26-.06.4-.09.28-.06-.1,0,.07-.02.23-.01.45-.03.68-.02.11,0,.23.01.34.02.29.02-.09-.04.07.01.22.06.44.1.66.17.11.03.28.1.09.02.12.05.25.11.37.18.2.11.39.24.58.37-.17-.12.02.02.09.07.09.07.19.15.28.22.25.19.5.4.77.56.51.3,1.09.51,1.69.52,1.2.02,2.45-.7,2.72-1.94.17-.76-.23-1.66-1.05-1.85-.76-.17-1.66.23-1.85,1.05-.05.24.08-.06.11-.14.07-.08.08-.1.02-.04-.08.08-.05.05.1-.08-.16.11-.02,0,.07-.02-.33.08.22.02.03.01-.21,0-.13.11.02.04-.04.02-.17-.04-.21-.05.23.06-.02-.02-.09-.05-.1-.06-.2-.13-.3-.19-.22-.14.03.03-.09-.07-.07-.06-.15-.12-.22-.18-.25-.2-.49-.4-.76-.58-.42-.29-.9-.5-1.38-.68-1.85-.69-4.06-.43-5.72.63-.66.42-.99,1.35-.54,2.05.43.66,1.35.99,2.05.54h0Z"/>
  <g>
    <circle class="cls-4" cx="298.5" cy="120.5" r="6"/>
    <circle class="cls-1" cx="299" cy="121" r="4"/>
    <circle class="cls-4" cx="299.5" cy="121.5" r="1"/>
  </g>
  <g>
    <circle class="cls-4" cx="416.5" cy="112.5" r="6"/>
    <circle class="cls-1" cx="416" cy="113" r="4"/>
    <circle class="cls-4" cx="415.5" cy="113.5" r="1"/>
  </g>
  <g>
    <circle class="cls-4" cx="387.5" cy="111.5" r="6"/>
    <circle class="cls-1" cx="387" cy="112" r="4"/>
    <circle class="cls-4" cx="386.5" cy="112.5" r="1"/>
  </g>
  <path d="m352.9,43.05c.34.18.68.37,1.01.58.15.1.3.19.44.3.09.06.17.12.26.19.23.16-.15-.13,0,0,.59.48,1.15.99,1.66,1.56.12.13.23.27.34.4.06.07.13.19.2.25-.12-.11-.13-.17-.01,0,.22.3.43.61.62.92s.39.67.56,1.02c.08.16.15.32.22.48.15.33-.12-.31.01.03.04.1.08.2.11.3.27.73,1.03,1.31,1.85,1.05.72-.23,1.34-1.06,1.05-1.85-1.25-3.32-3.64-6.15-6.8-7.8-.7-.36-1.66-.2-2.05.54-.36.69-.2,1.67.54,2.05h0Z"/>
  <path d="m353.72,35.13c5.85,1.65,10.75,6.24,12.71,12.01.26.77,1.03,1.27,1.85,1.05.75-.21,1.31-1.07,1.05-1.85-2.3-6.77-7.92-12.16-14.81-14.11-1.86-.53-2.66,2.37-.8,2.89h0Z"/>
</svg>