<?xml version="1.0" encoding="UTF-8"?>
<svg id="Layer_1" data-name="Layer 1" xmlns="http://www.w3.org/2000/svg" viewBox="0 0 539.05 178.52">
  <defs>
    <style>
      .cls-1 {
        fill: #fff;
      }

      .cls-2 {
        fill: #ff685b;
      }

      .cls-3 {
        stroke: #000;
        stroke-miterlimit: 10;
      }

      .cls-4 {
        fill: #3dc;
      }

      .cls-5 {
        fill: #ff3;
      }

      .cls-6 {
        fill: #00dbc0;
      }

      .cls-7 {
        fill: #f5ed48;
      }

      .cls-8 {
        fill: #ffce00;
      }
    </style>
  </defs>
  <path class="cls-4" d="m31.03,97.42L1.01,115.53c-2.36,1.42-.33,3.57,3.38,3.57h58.9c3.66,0,5.71-2.11,3.43-3.54l-28.88-18.1c-1.73-1.09-5.03-1.1-6.8-.03Z"/>
  <rect class="cls-2" x="19.13" y="36.62" width="28.59" height="91.96" rx="8.75" ry="8.75"/>
  <ellipse class="cls-2" cx="33.23" cy="15.56" rx="15.15" ry="15.59"/>
  <polygon class="cls-1" points="168.37 .5 168.37 101.22 134.22 101.22 99.48 50.43 99.48 101.22 65.33 101.22 65.33 .5 99.48 .5 134.22 51.29 134.22 .5 168.37 .5"/>
  <path class="cls-1" d="m218.41.59v-.09h-34.15v175.17h34.15v-83.29c40.11-.58,70.38-5.43,70.38-45.9S258.53,1.24,218.41.59Zm-.85,71V22.03c24.86,0,45.02.21,45.02,24.78s-20.16,24.78-45.02,24.78Z"/>
  <circle class="cls-6" cx="338.32" cy="61.59" r="35.03"/>
  <path class="cls-8" d="m376.38,74.67l23.35,59.86c1.36,3.49,3.59,6.5,6.51,8.51,3.59,2.47,8.74,4.23,14.27.4,2.88-1.99,5.07-5,6.41-8.46l22.57-58.18c1.9-4.91,1.55-10.61-1.2-15-.88-1.41-1.99-2.66-3.38-3.52s-3.39-1.2-5.64-.91c-5.38.69-9.86,4.9-11.67,10.56l-13.7,42.94c-.1.31-.49.31-.6,0l-15.4-45.92s-3.7-9.67-14.03-7.84c0,0-5.93.49-8.07,10.07-.56,2.49-.34,5.13.58,7.49Z"/>
  <path class="cls-8" d="m279.92,101.66s3.39-7.56-4.69-8.99c-.07-.01-.13-.02-.2-.03-1.4-.16-16.29-1.64-16.29,6.94l-.16,69.59c0,.73.19,1.44.57,2.05,1.09,1.77,3.96,4.97,10.45,4.81,0,0,9.33.35,10.94-5.82.06-.23.08-.47.08-.71v-39.98c0-4.06,2.34-7.77,6-9.41,4.49-2.02,11.3-2.95,19.75,2.48,3.83,2.46,8.91,1.59,11.67-2.06.04-.05.08-.11.12-.16,0,0,3.31-3.5,3.41-7.62.03-1.28.11-2.23,0-3.46-.25-2.75-3.69-5.8-5.28-6.67-5.71-3.12-24.45-10.18-36.38-.95Z"/>
  <polygon class="cls-5" points="350.87 78.42 337.56 71 323.9 77.75 326.85 62.81 316.2 51.91 331.33 50.09 338.41 36.6 344.81 50.42 359.83 52.98 348.66 63.34 350.87 78.42"/>
  <path class="cls-6" d="m490.28,70h42.47c3.51,0,6.35-2.9,6.24-6.41-.87-29.39-15.91-41.78-40.65-42.54-28.47.11-39.58,16.96-40.34,43.79-.11,3.77.27,7.54,1.13,11.21,3.58,15.39,10.16,21.26,20.91,25.64,28.28,7.69,44.64.35,54.21-15.08,1.41-2.27-.04-5.23-2.7-5.48l-18.31-1.72c-1.53-.14-3.01.51-3.97,1.7-1.86,2.31-3.98,3.75-6.31,4.45-2.33.71-4.84.56-7.14-.23-5.33-1.83-8.57-4.98-9.97-9.28-.97-2.98,1.28-6.05,4.42-6.05Zm-4.49-19.12c1.79-7.44,6.09-11.36,12.9-11.79,6.82-.03,10.98,4.18,12.49,12.62.34,1.9-1.11,3.65-3.04,3.65h-18.8c-2.35,0-4.1-2.2-3.55-4.49Z"/>
  <path class="cls-2" d="m14.89,131.44s-7.67,3.46-6.74,13.1c0,0,.54,14.71,9.06,22.77l2.44-4.42s4.53,9.22,2.01,15.52c0,0,11.85.29,15-12.39,0,0,2.39,6.12-.38,9.4,0,0,17-1.2,21.44-17.97,0,0,4.29-13.01-8.33-22.37,0,0-17.71,9.46-34.5-3.65Z"/>
  <path class="cls-7" d="m19.48,134.45s-2.35,6.87,7.08,15.92l.48-2.62s2.33.32,2.83,8.04c0,0,5.7.02,7.15-7.83,0,0,1.66,1.44,1.5,5.17,0,0,12.64-5.55,8.6-17.38,0,0-11.75,6.49-27.63-1.3Z"/>
  <circle class="cls-7" cx="15.1" cy="145.01" r="1.79"/>
  <circle class="cls-7" cx="12.47" cy="140.2" r=".6"/>
  <circle class="cls-7" cx="17.08" cy="137.94" r=".89"/>
  <circle class="cls-7" cx="47.03" cy="161.17" r="2.38"/>
  <circle class="cls-7" cx="43.09" cy="156.12" r="1.19"/>
  <path class="cls-1" d="m432,121.92c-1.46-2.29-3.11-4.47-4.93-6.48-1.73-1.91-3.63-3.91-6.17-4.66-.78-.23-1.63.28-1.85,1.05s.27,1.61,1.05,1.85c.9.27,1.76.85,2.51,1.52.87.78,1.68,1.64,2.46,2.52,1.61,1.8,3.04,3.69,4.34,5.74.43.68,1.33.96,2.05.54.68-.4.97-1.37.54-2.05h0Z"/>
  <path class="cls-1" d="m394.18,117.15c-3.94-4.55-9.41-7.73-15.32-8.89-.79-.16-1.62.23-1.85,1.05-.2.74.25,1.69,1.05,1.85,5.45,1.07,10.35,3.92,13.99,8.12.53.61,1.58.54,2.12,0,.61-.61.53-1.51,0-2.12h0Z"/>
  <path class="cls-1" d="m280.68,146.75c.2-.13.4-.24.62-.35-.26.12.14-.05.17-.06.09-.03.18-.06.27-.08.14-.04.28-.07.41-.1.28-.06-.08,0,.09-.02.24-.02.47-.03.71-.03.12,0,.24.01.35.02.28.02-.07-.02.09.02.23.05.46.1.69.18.09.03.3.11.11.03.13.05.26.12.38.19.21.11.41.25.6.39-.16-.12.05.04.11.09.1.08.19.16.29.23.26.2.51.41.79.57.52.31,1.12.52,1.73.53,1.23.02,2.51-.71,2.78-1.97.17-.76-.23-1.66-1.05-1.85-.76-.17-1.66.23-1.85,1.05-.05.24.07-.04.1-.13.07-.08.08-.09.02-.03-.08.08-.05.05.09-.07-.15.1-.05,0,.06-.02-.34.08.21.02,0,.02-.11,0-.32-.04,0,.03-.07-.02-.15-.03-.22-.05.22.06-.05-.03-.11-.06-.11-.06-.21-.13-.31-.2-.21-.13,0,.01-.11-.08-.08-.06-.16-.12-.23-.19-.25-.2-.51-.41-.78-.59-.44-.3-.93-.52-1.43-.71-1.91-.71-4.21-.45-5.92.65-.66.42-.99,1.35-.54,2.05.43.66,1.35.99,2.05.54h0Z"/>
  <g>
    <circle class="cls-3" cx="304.4" cy="109.69" r="6.27"/>
    <circle class="cls-1" cx="304.93" cy="110.21" r="4.18"/>
    <circle class="cls-3" cx="305.45" cy="110.74" r="1.04"/>
  </g>
  <g>
    <circle class="cls-3" cx="427.71" cy="101.33" r="6.27"/>
    <circle class="cls-1" cx="427.19" cy="101.85" r="4.18"/>
    <circle class="cls-3" cx="426.67" cy="102.38" r="1.04"/>
  </g>
  <g>
    <circle class="cls-3" cx="397.41" cy="100.29" r="6.27"/>
    <circle class="cls-1" cx="396.88" cy="100.81" r="4.18"/>
    <circle class="cls-3" cx="396.36" cy="101.33" r="1.04"/>
  </g>
  <path class="cls-1" d="m361.29,28.7c.36.19.71.39,1.05.61.16.1.31.2.46.31.09.06.18.13.27.19.23.17-.14-.11,0,0,.62.5,1.2,1.03,1.73,1.63.12.14.24.28.36.42.03.04.2.21.21.26-.02-.12-.14-.19,0,0,.23.31.45.63.65.96s.41.7.59,1.07c.08.17.16.33.23.5.16.34-.12-.3.02.05.04.1.08.21.12.31.27.73,1.03,1.31,1.85,1.05.72-.23,1.34-1.06,1.05-1.85-1.3-3.45-3.79-6.4-7.08-8.11-.7-.36-1.66-.2-2.05.54-.36.69-.2,1.67.54,2.05h0Z"/>
  <path class="cls-1" d="m362.13,20.41c6.14,1.74,11.27,6.55,13.33,12.6.62,1.82,3.52,1.04,2.89-.8-2.4-7.05-8.25-12.66-15.43-14.69-1.86-.53-2.66,2.37-.8,2.89h0Z"/>
</svg>